#!OML:ASF I:\Actors\actors\Patient Classification 2\Patient 1\Session 1\actor1.ASF
:FULLY-SPECIFIED
:DEGREES
771
root -1.04463 18.1711 5.79238 -1.20022 2.48526 -4.76218
lowerback 4.84483 1.68396 3.91142
upperback 1.2604 2.46279 1.66568
thorax -1.32625 1.22226 -0.622599
lowerneck -8.18892 3.63045 0.52766
upperneck 34.0689 9.62434 -12.1335
head 13.5963 2.89932 -3.57442
rclavicle -2.63017e-014 -8.74653e-015
rhumerus -21.4135 41.7054 -87.365
rradius 109.352
rwrist -17.9323
rhand -19.2017 -42.248
rfingers 7.12502
rthumb 7.11041 -432.109
lclavicle -2.63017e-014 -8.74653e-015
lhumerus -20.0051 -19.6908 100.415
lradius 98.1769
lwrist 79.2561
lhand -16.1008 -12.3498
lfingers 7.12502
lthumb 10.1029 17.3877
rfemur 0 0 0
rtibia 0
rfoot 0 0
rtoes 0
lfemur 18.4801 -6.57233 -11.9458
ltibia -19.7679
lfoot -1.01106 18.475
ltoes -13.1621
772
root -1.04536 18.171 5.79211 -1.19824 2.52995 -4.76065
lowerback 4.80357 1.67919 3.9649
upperback 1.25988 2.45634 1.63823
thorax -1.30047 1.21937 -0.678745
lowerneck -8.15858 3.59682 0.511949
upperneck 34.006 9.56725 -12.1376
head 13.555 2.87557 -3.57885
rclavicle -1.07126e-014 7.05686e-015
rhumerus -20.9441 41.619 -86.9951
rradius 109.254
rwrist -21.0452
rhand -18.4103 -43.6401
rfingers 7.12502
rthumb 7.87438 -433.473
lclavicle -1.07126e-014 7.05686e-015
lhumerus -19.9973 -19.6572 100.326
lradius 98.1634
lwrist 79.078
lhand -16.2153 -12.2976
lfingers 7.12502
lthumb 9.99245 17.4452
rfemur 0 0 0
rtibia 0
rfoot 0 0
rtoes 0
lfemur 18.4571 -6.45266 -11.9204
ltibia -19.778
lfoot -0.968922 18.3504
ltoes -13.3345
773
root -1.04609 18.17 5.79034 -1.22025 2.56241 -4.78594
lowerback 4.76656 1.67875 4.03249
upperback 1.27932 2.45605 1.62819
thorax -1.25647 1.22009 -0.724945
lowerneck -8.10722 3.57671 0.509644
upperneck 33.9073 9.53925 -12.1931
head 13.5005 2.86275 -3.60124
rclavicle -7.77434e-015 -5.41688e-015
rhumerus -19.9919 41.3708 -86.2695
rradius 108.987
rwrist -24.071
rhand -17.5889 -45.0609
rfingers 7.12502
rthumb 8.66711 -434.863
lclavicle -7.77434e-015 -5.41688e-015
lhumerus -20.0039 -19.6923 100.225
lradius 98.1371
lwrist 78.9467
lhand -16.2846 -12.2696
lfingers 7.12502
lthumb 9.92555 17.4764
rfemur 0 0 0
rtibia 0
rfoot 0 0
rtoes 0
lfemur 18.466 -6.28147 -11.8581
ltibia -19.8068
lfoot -0.912879 18.1648
ltoes -13.3322
774
root -1.0466 18.17 5.78787 -1.23308 2.58541 -4.82112
lowerback 4.71868 1.68061 4.12825
upperback 1.30081 2.45931 1.61282
thorax -1.20266 1.22278 -0.79203
lowerneck -8.13004 3.54389 0.485869
upperneck 33.8596 9.50623 -12.2419
head 13.4837 2.8405 -3.61899
rclavicle -4.27139e-014 -8.39865e-015
rhumerus -18.4729 40.9534 -85.1985
rradius 108.469
rwrist -26.7359
rhand -16.8097 -46.4178
rfingers 7.12502
rthumb 9.41899 -436.187
lclavicle -4.27139e-014 -8.39865e-015
lhumerus -20.0081 -19.7963 100.125
lradius 98.0916
lwrist 78.8102
lhand -16.2636 -12.1926
lfingers 7.12502
lthumb 9.94587 17.5525
rfemur 0 0 0
rtibia 0
rfoot 0 0
rtoes 0
lfemur 18.4845 -6.24593 -11.807
ltibia -19.8572
lfoot -0.848423 18.1128
ltoes -13.4282
775
root -1.04693 18.1701 5.78383 -1.25591 2.56276 -4.89933
lowerback 4.72504 1.67847 4.26127
upperback 1.29269 2.46333 1.61071
thorax -1.20858 1.22438 -0.868799
lowerneck -8.15425 3.52058 0.51534
upperneck 33.8829 9.49781 -12.3214
head 13.5062 2.82904 -3.65904
rclavicle 1.33217e-014 -3.47873e-016
rhumerus -16.4438 40.4707 -83.8827
rradius 107.625
rwrist -28.8606
rhand -16.1572 -47.35
rfingers 7.12502
rthumb 10.0485 -437.09
lclavicle 1.33217e-014 -3.47873e-016
lhumerus -20.0616 -19.9007 100.036
lradius 98.0509
lwrist 78.7029
lhand -16.192 -12.3042
lfingers 7.12502
lthumb 10.015 17.4375
rfemur 0 0 0
rtibia 0
rfoot 0 0
rtoes 0
lfemur 18.5339 -6.40802 -11.7461
ltibia -19.9106
lfoot -0.847205 18.2824
ltoes -13.6924
